<svg width="21" height="20" viewBox="0 0 21 20" fill="none" xmlns="http://www.w3.org/2000/svg">
<path d="M19.8556 6.51895C19.4569 6.1876 18.9898 6.04138 18.4708 6.0723C18.3891 6.07721 18.3682 6.051 18.369 5.97072C18.3729 5.54066 18.3711 5.11081 18.3707 4.68075C18.3703 4.20973 18.2064 3.80814 17.8519 3.49276C17.5808 3.25173 17.2613 3.1223 16.8974 3.10694C16.3041 3.10592 15.7107 3.10407 15.1174 3.10387C13.4072 3.10284 11.697 3.10264 9.98678 3.10223C9.96937 3.10223 9.95196 3.10018 9.93517 3.09568C9.80554 3.06189 9.67918 3.01908 9.5733 2.93184C9.48135 2.85628 9.38961 2.7803 9.30134 2.70043C8.9958 2.42437 8.69639 2.14115 8.38593 1.87103C8.15083 1.66665 7.87764 1.53436 7.56063 1.50999C7.47544 1.50732 7.39045 1.50221 7.30526 1.50221C5.832 1.5018 4.35853 1.50118 2.88527 1.50282C2.54778 1.50323 2.21008 1.49258 1.87279 1.51019C1.78391 1.51367 1.69872 1.53661 1.61414 1.5618C1.06428 1.72625 0.598791 2.2288 0.59961 2.99308C0.604525 7.50972 0.602068 12.0262 0.603501 16.5428C0.603501 16.6479 0.612717 16.7541 0.630739 16.8576C0.733338 17.4437 1.05629 17.8891 1.53222 18.2278C1.82241 18.4342 2.1468 18.5608 2.50702 18.5801C2.57194 18.5817 2.63666 18.5848 2.70137 18.5848C6.71362 18.5844 10.7257 18.5839 14.7377 18.5831C15.3021 18.5831 15.8665 18.5811 16.4307 18.5801C16.4416 18.5801 16.4522 18.5813 16.4629 18.5825C16.53 18.5911 16.5956 18.5715 16.6586 18.5573C17.4876 18.3738 18.0399 17.8711 18.2681 17.0597C18.6748 15.6143 19.0518 14.1603 19.4405 12.7097C19.8142 11.3149 20.1904 9.92071 20.5333 8.51811C20.729 7.71738 20.4876 7.04382 19.8556 6.51895ZM2.04051 2.31788C3.83222 2.32362 5.62372 2.32177 7.41523 2.31952C7.60486 2.31932 7.74658 2.40902 7.87703 2.528C8.21227 2.83355 8.54239 3.14503 8.8807 3.4471C9.11908 3.65987 9.38224 3.83415 9.70478 3.89559C9.72116 3.89886 9.76355 3.9046 9.78035 3.90562C9.8125 3.90767 9.82315 3.90992 9.8553 3.91197C9.94418 3.91832 9.99312 3.91934 10.0638 3.91955C12.2784 3.92057 14.4932 3.92139 16.7078 3.91955C16.9109 3.91955 17.1014 3.94494 17.2611 4.08399C17.4344 4.23472 17.5353 4.41923 17.5349 4.65351C17.5341 5.08357 17.5314 5.51363 17.537 5.94349C17.5384 6.04445 17.5159 6.07373 17.4094 6.07353C14.468 6.07025 11.5264 6.07107 8.58478 6.07107C7.29502 6.07107 6.00504 6.07844 4.71507 6.068C3.87973 6.06124 2.96903 6.60803 2.71345 7.5988C2.31616 9.13821 1.90085 10.6731 1.49331 12.2099C1.48574 12.2385 1.47836 12.2672 1.46075 12.295V11.8009C1.46034 8.83533 1.4628 5.86997 1.45563 2.90461C1.45481 2.57449 1.73067 2.31666 2.04051 2.31768V2.31788ZM19.7151 8.50193C19.3076 10.0387 18.9037 11.5764 18.4948 13.1128C18.1634 14.3571 17.8302 15.6008 17.4905 16.8426C17.3475 17.3657 17.0008 17.6771 16.4614 17.7662C16.4588 17.7666 16.4563 17.7672 16.4538 17.7681C16.4305 17.7758 16.4067 17.7818 16.3822 17.7822C16.3281 17.7832 16.2738 17.7844 16.2198 17.7844C12.424 17.7847 8.62799 17.7847 4.83201 17.7844C4.0239 17.7842 3.2156 17.7826 2.4075 17.7816C2.39378 17.7816 2.38005 17.7801 2.36654 17.7775C2.20066 17.7439 2.03642 17.707 1.88549 17.6237C1.36696 17.337 1.11834 16.7759 1.26989 16.1678C1.44887 15.45 1.64916 14.7374 1.8392 14.022C2.38087 11.9846 2.92418 9.94734 3.46155 7.90886C3.60101 7.38029 3.91823 7.04055 4.45007 6.90375C4.49226 6.89289 4.53752 6.90088 4.57827 6.88511C4.59855 6.87733 4.62025 6.87446 4.64196 6.87405C4.70954 6.87303 4.77692 6.8718 4.8445 6.8718C7.32369 6.87139 9.80308 6.87159 12.2825 6.87098C13.2272 6.87078 14.1717 6.86893 15.1164 6.86791C15.2767 6.86934 15.4369 6.87159 15.5972 6.8718C16.6037 6.87241 17.6103 6.86996 18.6168 6.87385C19.118 6.87569 19.5845 7.22547 19.7356 7.69792C19.822 7.96866 19.786 8.23468 19.7151 8.50193Z" fill="#8F908F"/>
<path d="M15.0119 15.6071C14.2304 16.6702 13.1751 17.3196 11.8735 17.5621C11.7324 17.5885 11.5903 17.6008 11.4484 17.6165C11.2018 17.644 11.0074 17.4865 10.9837 17.2481C10.9628 17.0378 11.1274 16.8445 11.3613 16.8191C12.349 16.7122 13.1983 16.2985 13.9146 15.6254C14.6216 14.9612 15.025 14.13 15.16 13.1693C15.3193 12.0346 15.0903 10.9848 14.4301 10.0469C13.7715 9.11118 12.8606 8.54392 11.7443 8.30656C11.4473 8.24349 11.1457 8.21359 10.8405 8.2183C9.76129 8.23202 8.79059 8.55088 7.96979 9.26662C7.25917 9.88611 6.81334 10.6674 6.59975 11.584C6.55469 11.7773 6.54241 11.9741 6.5207 12.1699C6.49797 12.3739 6.30178 12.5418 6.09596 12.5332C5.88032 12.5244 5.71382 12.3544 5.71485 12.1335C5.7169 11.6545 5.82482 11.1923 5.99582 10.7509C6.6362 9.09767 7.81456 8.02969 9.52947 7.56563C10.2606 7.36781 11.0015 7.3545 11.7471 7.4786C12.9781 7.6838 13.9984 8.26581 14.819 9.19986C15.4393 9.90618 15.8096 10.7323 15.9591 11.658C16.1929 13.1054 15.8778 14.4296 15.0119 15.6071Z" fill="#8F908F"/>
<path d="M12.5995 12.6802C12.2444 13.1508 11.8264 13.5616 11.4059 13.9707C11.3459 14.0291 11.3175 14.0844 11.3199 14.1727C11.3283 14.4792 11.324 14.7864 11.3259 15.0932C11.3265 15.1956 11.2882 15.2771 11.2102 15.3432C10.8278 15.6672 10.4461 15.9922 10.0642 16.3166C9.99822 16.3725 9.92818 16.4176 9.83664 16.42C9.66277 16.4247 9.54748 16.28 9.60216 16.1141C9.66298 15.9294 9.76353 15.7618 9.84074 15.5841C9.89357 15.4624 9.94559 15.3406 9.99351 15.2169C10.0072 15.1813 10.0199 15.145 10.0072 15.0993C9.95276 14.9058 9.93576 14.8913 9.71786 14.9032C9.22964 14.9298 8.67384 14.5012 8.57493 14.0209C8.55343 13.9161 8.56326 13.8106 8.57636 13.7055C8.595 13.5544 8.53622 13.4952 8.38611 13.4854C8.23498 13.4754 8.099 13.5053 7.96486 13.5747C7.77748 13.6715 7.58477 13.7582 7.3939 13.8483C7.35131 13.8686 7.31015 13.895 7.26079 13.8972C7.15123 13.9023 7.04658 13.8901 6.98351 13.7848C6.92575 13.6888 6.94623 13.5692 7.03798 13.4657C7.31875 13.1497 7.60115 12.835 7.88274 12.5196C7.94192 12.4535 8.00397 12.3898 8.05886 12.3203C8.13791 12.2202 8.23805 12.1844 8.36359 12.1891C8.53049 12.1952 8.6978 12.1905 8.86491 12.1905V12.202C9.03898 12.202 9.21305 12.1975 9.38692 12.2042C9.45204 12.2067 9.49362 12.1893 9.53539 12.1414C9.81739 11.8166 10.1094 11.5016 10.4338 11.218C11.0189 10.7064 11.666 10.3105 12.4348 10.1416C12.6412 10.0963 12.8503 10.0681 13.0621 10.0664C13.2679 10.0646 13.3981 10.1973 13.4008 10.4041C13.4123 11.261 13.109 12.005 12.5995 12.6802Z" fill="#8F908F"/>
<path d="M9.25545 15.3324C9.22268 15.4829 9.15428 15.6205 9.09079 15.7598C8.79487 16.4077 8.24726 16.7452 7.60463 16.9643C7.23089 17.0917 6.84261 17.1347 6.45003 17.1439C6.3335 17.1466 6.29787 17.111 6.28988 16.9946C6.28927 16.9844 6.28906 16.9742 6.28906 16.9639V16.8003C6.31507 16.1552 6.43754 15.5386 6.81169 14.9936C7.12399 14.5388 7.56798 14.29 8.09203 14.1649C8.20713 14.1374 8.30297 14.1776 8.33983 14.257C8.37894 14.3418 8.34884 14.4272 8.25177 14.5048C8.1848 14.5587 8.10596 14.5923 8.02998 14.6301C7.84178 14.7241 7.67795 14.8476 7.54279 15.0111C7.37363 15.2156 7.32489 15.46 7.2954 15.7125C7.28864 15.7698 7.27738 15.8273 7.27697 15.8849C7.27615 16.0008 7.34844 16.0819 7.46394 16.085C7.99701 16.0991 8.4453 15.9457 8.71173 15.4409C8.75944 15.3506 8.81003 15.2619 8.86122 15.1735C8.93208 15.0512 9.00847 15.0135 9.10697 15.0493C9.21531 15.0891 9.28186 15.2109 9.25545 15.3324Z" fill="#8F908F"/>
</svg>
